<svg id="Line" viewBox="0 0 64 64" xmlns="http://www.w3.org/2000/svg"><path d="m58.51 20.45c-2.09-2.85-5.17-4.66-8.68-5.11l-5.06-.64c-2.76-.35-5.49.4-7.69 2.1-.13.1-.26.21-.38.32-.18-1.38-.4-2.75-.7-4.11-.72-3.21-2.66-5.91-5.46-7.63-2.79-1.71-6.06-2.21-9.23-1.4l-2.78.71c-1.19.3-2.38.6-3.52.89-2.54.65-4.68 2.24-6.02 4.5-1.17 1.97-1.61 4.23-1.27 6.46l-1.75 1.07c-2.33 1.42-3.45 4.17-2.78 6.84l.2.76c1.36 5.37 4.33 10.07 8.58 13.61l3.09 2.57 1.78 7.02c.35 1.35 1.58 2.26 2.92 2.26.24 0 .48-.03.73-.09l10.58-2.69.05.09-.91 7.17c-.21 1.64.96 3.14 2.6 3.35 0 0 14.98 1.88 15.11 1.88.66 0 1.3-.22 1.83-.63.63-.49 1.04-1.2 1.14-1.99l.95-7.49c3.06-3.93 5.44-8.25 7.08-12.87.81-2.29 1.44-4.66 1.88-7.04.64-3.53-.17-7.06-2.28-9.94zm-53.18 4.28-.2-.76c-.46-1.81.3-3.68 1.88-4.64l1.17-.72.02.07c.46 1.81 1.78 3.24 3.44 3.88.42.64 2.4 3.68 3.41 6.08.16.38.53.61.92.61.13 0 .26-.03.39-.08.51-.21.75-.8.53-1.31-.71-1.69-1.83-3.61-2.64-4.93h.13c2.2 0 4.39-.29 6.54-.86 2.21-.59 4.35-1.48 6.35-2.64 2.2-1.29 3.26-3.81 2.64-6.27l-.29-1.15c-.13-.54-.68-.86-1.21-.73-.54.14-.86.68-.73 1.21l.29 1.15c.4 1.59-.29 3.22-1.71 4.05-1.84 1.08-3.81 1.9-5.85 2.44-2.28.61-4.62.87-6.95.78-1.56-.05-2.93-1.18-3.32-2.72l-.29-1.16c-.51-2.02-.21-4.12.86-5.91s2.77-3.07 4.79-3.58c1.14-.29 2.32-.59 3.52-.89l2.78-.71c2.64-.67 5.37-.26 7.69 1.17 2.33 1.43 3.95 3.69 4.55 6.36.41 1.85.7 3.75.87 5.63-.65.93-1.14 1.96-1.46 3.06l-2.09.37c-2.7.48-4.74 2.63-5.09 5.35l-.1.79c-.37 2.89-.24 5.78.34 8.57l-10.24 2.6-3.03-2.52c-3.93-3.27-6.67-7.61-7.92-12.57zm14.67 23.93c-.53.13-1.08-.19-1.22-.73l-1.59-6.27 9.81-2.49c.53 1.82 1.25 3.59 2.18 5.29l.9 1.64zm28.52 9.54c-.21.16-.47.24-.74.2l-14.72-1.86c-.55-.07-.94-.57-.87-1.12l.81-6.42 16.71 2.11-.81 6.43c-.03.26-.17.5-.38.66zm10.3-28.17c-.41 2.28-1.01 4.54-1.79 6.73-1.58 4.44-3.88 8.61-6.83 12.39l-17.37-2.19-1.9-3.46c-2.45-4.48-3.41-9.52-2.77-14.59l.1-.79c.23-1.85 1.62-3.3 3.45-3.63l1.35-.24-.85 6.76c-.07.55.32 1.05.87 1.12.54.07 1.05-.32 1.12-.87l.92-7.25s0-.01 0-.02c.28-2.23 1.42-4.22 3.19-5.6 1.78-1.38 3.98-1.98 6.22-1.7l5.06.64c2.96.37 5.56 1.9 7.32 4.3 1.78 2.43 2.47 5.41 1.93 8.4z"/></svg>