<?xml version="1.0" encoding="UTF-8" standalone="no"?>
<svg
   version="1.1"
   id="svg3813"
   xml:space="preserve"
   width="682.66669"
   height="682.66669"
   viewBox="0 0 682.66669 682.66669"
   xmlns="http://www.w3.org/2000/svg"
   xmlns:svg="http://www.w3.org/2000/svg"><defs
     id="defs3817"><clipPath
       clipPathUnits="userSpaceOnUse"
       id="clipPath3827"><path
         d="M 0,512 H 512 V 0 H 0 Z"
         id="path3825" /></clipPath></defs><g
     id="g3819"
     transform="matrix(1.3333333,0,0,-1.3333333,0,682.66667)"><g
       id="g3821"><g
         id="g3823"
         clip-path="url(#clipPath3827)"><path
           d="M 376,15 H 166 v 90 h 210 z"
           style="fill:none;stroke:currentColor;stroke-width:45;stroke-linecap:butt;stroke-linejoin:miter;stroke-miterlimit:10;stroke-dasharray:none;stroke-opacity:1"
           id="path3829" /><g
           id="g3831"
           transform="translate(151,196)"><path
             d="m 0,0 h 60 c 24.853,0 45,20.147 45,45 0,24.853 -20.147,45 -45,45 H 3.166 C -40.004,90 -75,55.004 -75,11.833 c 0,-26.135 13.062,-50.541 34.808,-65.038 L 15,-91"
             style="fill:none;stroke:currentColor;stroke-width:45;stroke-linecap:butt;stroke-linejoin:miter;stroke-miterlimit:10;stroke-dasharray:none;stroke-opacity:1"
             id="path3833" /></g><g
           id="g3835"
           transform="translate(253.4395,256)"><path
             d="m 0,0 h 32.561 c 49.706,0 90,40.294 90,90 v 15"
             style="fill:none;stroke:currentColor;stroke-width:45;stroke-linecap:butt;stroke-linejoin:miter;stroke-miterlimit:10;stroke-dasharray:none;stroke-opacity:1"
             id="path3837" /></g><g
           id="g3839"
           transform="translate(174.125,286)"><path
             d="M 0,0 C -37.624,0 -68.125,30.5 -68.125,68.125 -68.125,146.48 -4.605,211 73.75,211 H 120 c 78.355,0 141.875,-64.52 141.875,-142.875 V 18.167 c 0,-70.531 -20.877,-140.482 -60,-199.167"
             style="fill:none;stroke:currentColor;stroke-width:45;stroke-linecap:butt;stroke-linejoin:miter;stroke-miterlimit:10;stroke-dasharray:none;stroke-opacity:1"
             id="path3841" /></g><g
           id="g3843"
           transform="translate(316,15)"><path
             d="m 0,0 h -15 c -24.853,0 -45,20.147 -45,45 0,24.853 20.147,45 45,45 H 0"
             style="fill:none;stroke:currentColor;stroke-width:45;stroke-linecap:butt;stroke-linejoin:miter;stroke-miterlimit:10;stroke-dasharray:none;stroke-opacity:1"
             id="path3845" /></g></g></g></g></svg>